<svg width="20" height="20" viewBox="0 0 20 20" fill="none" xmlns="http://www.w3.org/2000/svg">
<g clip-path="url(#clip0_3598_8500)">
<path d="M10 19.0244C15.1087 19.0244 19.25 14.9841 19.25 10C19.25 5.01596 15.1087 0.975616 10 0.975616C4.89137 0.975616 0.75 5.01596 0.75 10C0.75 14.9841 4.89137 19.0244 10 19.0244Z" fill="#0067D6"/>
<path d="M10.8325 8.47702H9.16748V14.9746H10.8325V8.47702Z" fill="white"/>
<path d="M10.0001 7.24864C10.7153 7.24864 11.2951 6.68298 11.2951 5.98522C11.2951 5.28746 10.7153 4.7218 10.0001 4.7218C9.28483 4.7218 8.70508 5.28746 8.70508 5.98522C8.70508 6.68298 9.28483 7.24864 10.0001 7.24864Z" fill="white"/>
</g>
<defs>
<clipPath id="clip0_3598_8500">
<rect width="20" height="20" fill="white"/>
</clipPath>
</defs>
</svg>
