<svg width="20" height="20" viewBox="0 0 20 20" fill="none" xmlns="http://www.w3.org/2000/svg">
<path d="M18.5 1.46341H1.5C1.36193 1.46341 1.25 1.57261 1.25 1.70731V18.2927C1.25 18.4274 1.36193 18.5366 1.5 18.5366H18.5C18.6381 18.5366 18.75 18.4274 18.75 18.2927V1.70731C18.75 1.57261 18.6381 1.46341 18.5 1.46341Z" fill="#FD0013"/>
<path d="M14.8534 5.95459L14.1464 5.26484C14.0995 5.21908 14.036 5.19342 13.9697 5.19342C13.9034 5.19342 13.8398 5.21908 13.7929 5.26484L9.99994 8.96532L6.20694 5.26484C6.16004 5.21908 6.09649 5.19342 6.03019 5.19342C5.96389 5.19342 5.90029 5.21908 5.85344 5.26484L5.14644 5.95459C5.09954 6.0003 5.07324 6.06235 5.07324 6.12703C5.07324 6.19171 5.09954 6.25371 5.14644 6.29947L8.93944 9.99996L5.14644 13.7004C5.09954 13.7462 5.07324 13.8082 5.07324 13.8729C5.07324 13.9376 5.09954 13.9996 5.14644 14.0453L5.85344 14.7351C5.90029 14.7808 5.96389 14.8065 6.03019 14.8065C6.09649 14.8065 6.16004 14.7808 6.20694 14.7351L9.99994 11.0346L13.7929 14.7351C13.8398 14.7808 13.9034 14.8065 13.9697 14.8065C14.036 14.8065 14.0995 14.7808 14.1464 14.7351L14.8534 14.0453C14.9003 13.9996 14.9266 13.9376 14.9266 13.8729C14.9266 13.8082 14.9003 13.7462 14.8534 13.7004L11.0604 9.99996L14.8534 6.29947C14.9003 6.25371 14.9266 6.19171 14.9266 6.12703C14.9266 6.06235 14.9003 6.0003 14.8534 5.95459Z" fill="white"/>
</svg>
