<svg width="20" height="20" viewBox="0 0 20 20" fill="none" xmlns="http://www.w3.org/2000/svg">
<g clip-path="url(#clip0_3598_8499)">
<path d="M10 0.97561C11.2362 0.966093 12.4607 1.20954 13.5945 1.69024C15.819 2.5974 17.5877 4.32294 18.5175 6.49317C19.0102 7.59932 19.2598 8.79395 19.25 10C19.2523 10.8148 19.1377 11.626 18.9095 12.4098C18.4903 13.9163 17.6735 15.2892 16.5406 16.3916C15.4077 17.494 13.9983 18.2872 12.453 18.6922C11.6556 18.9156 10.8297 19.0274 10 19.0244C8.76408 19.0317 7.54003 18.7883 6.40553 18.3098C5.30443 17.8595 4.30355 17.2048 3.45853 16.382C2.62255 15.5516 1.95245 14.5766 1.48253 13.5068C0.992036 12.4 0.742596 11.2058 0.750031 10C0.740276 8.79395 0.989811 7.59932 1.48253 6.49317C1.95245 5.42337 2.62255 4.44837 3.45853 3.61805C4.30355 2.79522 5.30443 2.14047 6.40553 1.69024C7.54003 1.21171 8.76408 0.968357 10 0.97561Z" fill="#D9D9D9"/>
<path d="M11.1074 14.6205C11.1085 14.4808 11.0804 14.3423 11.0247 14.2137C10.9689 14.085 10.8868 13.9688 10.7834 13.8722C10.6858 13.7697 10.567 13.6885 10.4349 13.634C10.3027 13.5797 10.1603 13.5533 10.0169 13.5566H9.96689C9.82384 13.5555 9.68204 13.5829 9.55024 13.6372C9.41844 13.6914 9.29939 13.7714 9.20039 13.8722C9.10129 13.9711 9.02319 14.0881 8.97049 14.2165C8.91784 14.3449 8.89164 14.4822 8.89339 14.6205V14.6693C8.89169 14.8075 8.91794 14.9446 8.97059 15.073C9.02329 15.2013 9.10134 15.3182 9.20039 15.4171C9.29939 15.5179 9.41844 15.5978 9.55024 15.6521C9.68204 15.7063 9.82384 15.7338 9.96689 15.7327H10.0169C10.1603 15.736 10.3027 15.7096 10.4349 15.6552C10.567 15.6008 10.6858 15.5196 10.7834 15.4171C10.8868 15.3205 10.9688 15.2044 11.0246 15.0758C11.0803 14.9472 11.1085 14.8089 11.1074 14.6693V14.6205Z" fill="#6D6D6D"/>
<path d="M13.969 7.98927C13.9715 7.55561 13.8663 7.12785 13.6625 6.74244C13.4595 6.35639 13.1751 6.01663 12.828 5.74536C12.4584 5.44736 12.0373 5.21609 11.5845 5.06244C11.0863 4.89302 10.562 4.8087 10.0345 4.81318C9.49718 4.80861 8.96258 4.88717 8.45048 5.04585C7.99943 5.18736 7.57823 5.40697 7.20698 5.69414C6.86073 5.95307 6.57593 6.28185 6.37198 6.65805C6.16663 7.03751 6.05583 7.45878 6.04848 7.8878C6.02548 7.95414 6.05398 7.9878 6.13348 7.9878H7.42798C7.47348 7.9878 7.50748 7.96 7.53048 7.90439C7.53928 7.66936 7.60968 7.44044 7.73498 7.23951C7.87533 7.03624 8.05463 6.86131 8.26298 6.72439C8.50468 6.57429 8.76908 6.46219 9.04648 6.39219C9.36748 6.30146 9.70028 6.25658 10.0345 6.25902C10.3575 6.25648 10.6791 6.30141 10.9885 6.39219C11.2694 6.46868 11.5345 6.59234 11.772 6.75756C11.9876 6.90053 12.168 7.08848 12.3 7.3078C12.4242 7.51487 12.489 7.75078 12.4875 7.99073C12.4872 8.07409 12.4815 8.15736 12.4705 8.24C12.4556 8.33946 12.4217 8.43527 12.3705 8.52244C12.2973 8.64102 12.2053 8.74751 12.098 8.83805C11.9377 8.97131 11.76 9.08317 11.5695 9.17073C11.5038 9.2077 11.4357 9.24029 11.3655 9.26829C11.286 9.30146 11.2005 9.34048 11.11 9.38439C10.853 9.49844 10.6026 9.62609 10.36 9.76683C10.1414 9.88268 9.94068 10.0282 9.76398 10.199C9.60028 10.3727 9.47288 10.5758 9.38898 10.7971C9.29178 11.0694 9.24573 11.3566 9.25298 11.6449V12.2927C9.25298 12.3478 9.28698 12.3756 9.35298 12.3756H10.65C10.6615 12.3772 10.6732 12.376 10.6843 12.3724C10.6953 12.3688 10.7053 12.3627 10.7136 12.3547C10.7218 12.3467 10.728 12.3369 10.7317 12.3261C10.7354 12.3154 10.7365 12.3039 10.735 12.2927V11.6454C10.7216 11.5035 10.745 11.3605 10.803 11.2298C10.8572 11.1554 10.9269 11.0931 11.0075 11.0468C11.1046 10.9878 11.2072 10.9378 11.314 10.8976C11.473 10.8202 11.615 10.7537 11.74 10.698C12.058 10.554 12.3533 10.4044 12.626 10.2493C12.8823 10.0964 13.1176 9.91214 13.326 9.70097C13.531 9.48873 13.6929 9.24044 13.803 8.96926C13.9215 8.65585 13.9778 8.32327 13.969 7.98927Z" fill="#6D6D6D"/>
</g>
<defs>
<clipPath id="clip0_3598_8499">
<rect width="20" height="20" fill="white"/>
</clipPath>
</defs>
</svg>
