<svg width="20" height="20" viewBox="0 0 20 20" fill="none" xmlns="http://www.w3.org/2000/svg">
<g clip-path="url(#clip0_3598_8501)">
<path d="M10 19.0244C15.1087 19.0244 19.25 14.9841 19.25 10C19.25 5.01596 15.1087 0.975616 10 0.975616C4.89137 0.975616 0.75 5.01596 0.75 10C0.75 14.9841 4.89137 19.0244 10 19.0244Z" fill="#0067D6"/>
<path d="M8.57958 13.7775L4.90008 10.0712C4.85394 10.0248 4.82859 9.96233 4.82962 9.89764C4.83065 9.83296 4.85798 9.77135 4.90558 9.72633L5.62358 9.0473C5.67118 9.00228 5.73518 8.97755 5.80148 8.97857C5.86778 8.97955 5.93093 9.00623 5.97708 9.05267L8.80708 11.9034L14.5716 6.70096C14.5957 6.67916 14.6239 6.66223 14.6547 6.65106C14.6855 6.63994 14.7183 6.63482 14.7511 6.63608C14.784 6.6373 14.8162 6.64482 14.8461 6.65823C14.8759 6.6716 14.9028 6.69062 14.9251 6.71413L15.6041 7.43072C15.6264 7.45423 15.6438 7.48179 15.6552 7.51184C15.6666 7.54189 15.6719 7.57384 15.6706 7.60589C15.6693 7.63794 15.6616 7.6694 15.6479 7.69852C15.6342 7.72764 15.6147 7.75384 15.5906 7.7756L8.92908 13.7868C8.88113 13.8301 8.81773 13.8534 8.75238 13.8517C8.68708 13.85 8.62503 13.8234 8.57958 13.7775Z" fill="white"/>
</g>
<defs>
<clipPath id="clip0_3598_8501">
<rect width="20" height="20" fill="white"/>
</clipPath>
</defs>
</svg>
