<?xml version="1.0" encoding="utf-8"?>
<svg version="1.1" id="Layer_1" xmlns="http://www.w3.org/2000/svg" xmlns:xlink="http://www.w3.org/1999/xlink" x="0px" y="0px"
	 viewBox="0 0 69.4 69.4" style="enable-background:new 0 0 69.4 69.4;" xml:space="preserve">
<style type="text/css">
	.st0{fill:#FFFFFF;}
	.st1{fill:#BD081C;}
</style>
<g>
	<path class="st0" d="M69.4,34.7c0,19.164-15.536,34.7-34.7,34.7S0,53.864,0,34.7C0,15.536,15.536,0,34.7,0S69.4,15.536,69.4,34.7"
		/>
	<g>
		<path class="st1" d="M34.658,2.616C16.938,2.616,2.574,16.98,2.574,34.7c0,13.592,8.456,25.202,20.392,29.877
			c-0.281-2.539-0.534-6.432,0.111-9.203c0.583-2.504,3.762-15.948,3.762-15.948s-0.96-1.922-0.96-4.763
			c0-4.461,2.586-7.792,5.805-7.792c2.737,0,4.06,2.055,4.06,4.519c0,2.753-1.753,6.868-2.657,10.683
			c-0.756,3.193,1.601,5.798,4.751,5.798c5.703,0,10.086-6.013,10.086-14.692c0-7.682-5.52-13.053-13.402-13.053
			c-9.129,0-14.487,6.847-14.487,13.924c0,2.757,1.062,5.715,2.388,7.322c0.262,0.318,0.301,0.596,0.223,0.92
			c-0.244,1.014-0.785,3.193-0.891,3.639c-0.14,0.587-0.465,0.712-1.073,0.429c-4.007-1.865-6.513-7.724-6.513-12.429
			c0-10.121,7.353-19.415,21.199-19.415c11.13,0,19.779,7.931,19.779,18.53c0,11.057-6.972,19.956-16.649,19.956
			c-3.251,0-6.307-1.689-7.354-3.684c0,0-1.609,6.126-1.999,7.627c-0.725,2.787-2.68,6.28-3.988,8.411
			c3.002,0.929,6.192,1.431,9.5,1.431c17.72,0,32.084-14.365,32.084-32.084C66.742,16.98,52.378,2.616,34.658,2.616z"/>
	</g>
</g>
</svg>
