<svg width="67" height="60" viewBox="0 0 67 60" fill="none" xmlns="http://www.w3.org/2000/svg">
<path d="M4.17631 43.5047L6.68265 46.8797H7.67897V41.8331H6.65471V45.1481L4.17249 41.8331H3.15333V46.8797H4.17631V43.5047ZM28.8082 41.8331H24.5334V42.904H26.1463V46.8797H27.2322V42.904H28.8082V41.8331ZM28.498 58.9822H30.617V49.4604H28.498V58.9822ZM17.4367 43.5047L19.9427 46.8797H20.939V41.8331H19.9148V45.1481L17.4326 41.8331H16.4134V46.8797H17.4367V43.5047ZM22.222 56.3685L20.2046 49.4604H18.5149L16.5089 56.3431L14.6776 49.4604H12.6046L15.2989 58.9822H17.5869L19.3623 52.7087L21.126 58.9822H23.4238L26.1323 49.4604H24.0604L22.222 56.3685ZM7.10556 53.1983C5.72983 52.9726 4.84115 52.7176 4.84115 52.0769C4.84115 51.3365 5.83047 51.0517 7.15826 51.0517C8.39237 51.0517 9.63032 51.5222 10.0716 51.7079L10.7485 50.0595C10.2691 49.8696 8.74798 49.3264 7.06111 49.3264C5.00371 49.3264 2.81772 50.3297 2.81772 52.189C2.81772 53.6971 3.88103 54.467 6.61058 54.9366C8.53494 55.2678 9.59476 55.4503 9.56492 56.2774C9.54778 56.7333 9.19567 57.4976 7.02652 57.4976C5.28186 57.4976 4.05217 56.8651 3.62545 56.6082L2.72407 58.2351C3.20444 58.4878 4.81608 59.2435 6.88967 59.2435C9.91893 59.2435 11.5201 58.1941 11.5201 56.2088C11.5201 55.0582 11.1318 53.8593 7.10556 53.1983ZM12.6072 41.8331H11.4842V46.8797H12.6072V41.8331ZM45.1353 46.8797V41.8331H44.1114V45.1481L41.6289 41.8331H40.6097V46.8797H41.6327V43.5047L44.1393 46.8797H45.1353ZM36.4276 45.945H33.5272V44.7614H36.2092V43.8486H33.5272V42.7596H36.4276V41.8331L32.503 41.8347V46.8797L36.4276 46.8778V45.945ZM63.2846 57.8366H63.7208V58.9822H63.9964V57.8366H64.4222V57.5652H63.2846V57.8366ZM60.0378 41.6632C58.5557 41.6632 57.3498 42.8713 57.3498 44.3566C57.3498 45.8415 58.5557 47.0496 60.0378 47.0496C61.5199 47.0496 62.7258 45.8415 62.7258 44.3566C62.7258 42.8713 61.5199 41.6632 60.0378 41.6632ZM60.0378 45.9272C59.173 45.9272 58.4697 45.2227 58.4697 44.3563C58.4697 43.4901 59.1729 42.7856 60.0378 42.7856C60.9024 42.7856 61.6056 43.4901 61.6056 44.3563C61.6056 45.2227 60.9024 45.9272 60.0378 45.9272ZM65.8636 57.5652L65.5064 58.6018L65.1499 57.5652H64.7568V58.9822H65.0099V57.8944L65.3801 58.9695L65.3845 58.9822H65.629L65.6331 58.9695L66.0033 57.8944V58.9822H66.2567V57.5652H65.8636ZM60.3817 53.2129H55.9344V49.4604H53.9653V58.9822H55.9344V55.1839H60.3817V58.9822H62.3524V49.4604H60.3817V53.2129ZM32.9399 51.4809H35.9828V58.9822H38.0313V51.4809H41.0053V49.4604H32.9399L32.9399 51.4809ZM47.6255 51.2663C48.7005 51.2663 49.7029 51.8404 50.2395 52.7446L51.7885 51.3974C50.8408 49.9868 49.2749 49.1489 47.5699 49.1489C44.7677 49.1489 42.4874 51.4289 42.4874 54.2311C42.4874 57.033 44.7677 59.313 47.5699 59.313C49.2749 59.313 50.8408 58.4751 51.7885 57.0648L50.2395 55.7176C49.7029 56.6222 48.7002 57.1959 47.6255 57.1959C45.9599 57.1959 44.6048 55.8659 44.6048 54.2311C44.6048 52.5966 45.9599 51.2663 47.6255 51.2663ZM51.4914 41.8331H49.4048V46.8797H51.4914C52.922 46.8797 54.0859 45.7476 54.0859 44.3563C54.0859 42.9653 52.922 41.8331 51.4914 41.8331ZM51.5425 45.8193H50.4411V42.8935H51.5425C52.3492 42.8935 53.0049 43.5498 53.0049 44.3563C53.0049 45.163 52.3492 45.8193 51.5425 45.8193ZM16.3512 0.839032H8.91906C4.10364 0.839032 0.200012 4.74267 0.200012 9.55784V26.1239C0.200012 30.9394 4.10364 34.8427 8.91906 34.8427H16.3512C16.4893 34.8427 16.6008 34.731 16.6008 34.5935V1.08802C16.6008 0.950713 16.4893 0.839032 16.3512 0.839032ZM13.8592 32.1015H8.91906C7.32202 32.1015 5.82089 31.4798 4.69243 30.3511C3.56317 29.2227 2.94182 27.7215 2.94182 26.1239V9.5581C2.94182 7.9605 3.56317 6.45967 4.69164 5.33146C5.82065 4.20249 7.32204 3.58059 8.91908 3.58059H13.8592V32.1015ZM8.69091 7.84296C10.4568 7.84296 11.8879 9.27436 11.8879 11.04C11.8879 12.8059 10.4568 14.2373 8.69091 14.2373C6.9253 14.2373 5.4939 12.8059 5.4939 11.04C5.4939 9.27436 6.9253 7.84296 8.69091 7.84296ZM25.4849 0.839032H20.2242C20.1018 0.839032 20.003 0.938113 20.003 1.06074V34.5935C20.003 34.731 20.1143 34.8427 20.2519 34.8427H25.4849C30.3001 34.8427 34.2037 30.9393 34.2037 26.1239V9.55783C34.2037 4.74266 30.3001 0.839032 25.4849 0.839032ZM26.7301 22.979C24.8312 22.979 23.2919 21.4397 23.2919 19.541C23.2919 17.6424 24.8312 16.1031 26.7301 16.1031C28.6288 16.1031 30.1678 17.6424 30.1678 19.541C30.1678 21.4397 28.6288 22.979 26.7301 22.979ZM39.9318 34.8427V28.9974C40.5358 28.5008 42.8201 26.5364 45.2354 24.4593C47.4072 22.5912 49.5773 20.7163 51.79 18.8973C53.4582 17.526 56.6253 15.009 56.7261 12.5434C56.8447 9.64291 54.7883 7.76275 51.7158 7.76275C49.885 7.76275 47.7349 8.78014 46.4346 9.88806C45.1131 11.0139 43.4614 12.4255 43.4614 12.4255C43.4613 12.4255 38.6474 7.20687 38.6474 7.20687C42.7346 2.62625 47.1278 0.303955 51.708 0.303955C61.4679 0.0619633 68.822 10.939 61.3993 19.4675C58.7046 22.4356 55.6481 25.2165 52.5045 27.6884H65.2494V34.8427L39.9318 34.8427Z" fill="white"/>
</svg>
