<svg width="20" height="20" viewBox="0 0 20 20" fill="none" xmlns="http://www.w3.org/2000/svg">
<g clip-path="url(#clip0_3598_8498)">
<mask id="mask0_3598_8498" style="mask-type:luminance" maskUnits="userSpaceOnUse" x="0" y="0" width="20" height="20">
<path d="M20 0.243896H0V19.7561H20V0.243896Z" fill="white"/>
</mask>
<g mask="url(#mask0_3598_8498)">
<path d="M9.82331 0.416469L0.176983 9.82752C0.079352 9.92279 0.079352 10.0772 0.176983 10.1725L9.82331 19.5836C9.92096 19.6788 10.0793 19.6788 10.1769 19.5836L19.8232 10.1725C19.9209 10.0772 19.9209 9.92279 19.8232 9.82752L10.1769 0.416469C10.0793 0.321219 9.92096 0.321219 9.82331 0.416469Z" fill="#FF8924"/>
<path d="M9.99995 14.878C10.6373 14.878 11.1539 14.3739 11.1539 13.7521C11.1539 13.1303 10.6373 12.6263 9.99995 12.6263C9.3626 12.6263 8.84595 13.1303 8.84595 13.7521C8.84595 14.3739 9.3626 14.878 9.99995 14.878Z" fill="white"/>
<path d="M9.18843 11.501H10.8114C10.8413 11.5009 10.8701 11.4895 10.8916 11.4692C10.9131 11.449 10.9258 11.4214 10.9269 11.3922L11.1499 5.23853C11.1505 5.22341 11.148 5.20839 11.1425 5.19424C11.137 5.18014 11.1286 5.16722 11.1179 5.15634C11.1071 5.14546 11.0943 5.13678 11.08 5.13088C11.0657 5.12497 11.0504 5.12195 11.0349 5.12195H8.96543C8.94993 5.12195 8.93463 5.12497 8.92038 5.13088C8.90608 5.13678 8.89323 5.14546 8.88248 5.15634C8.87173 5.16722 8.86338 5.18014 8.85788 5.19424C8.85233 5.20839 8.84983 5.22341 8.85043 5.23853L9.07293 11.3922C9.07408 11.4214 9.08678 11.449 9.10828 11.4692C9.12978 11.4895 9.15853 11.5009 9.18843 11.501Z" fill="white"/>
</g>
</g>
<defs>
<clipPath id="clip0_3598_8498">
<rect width="20" height="20" fill="white"/>
</clipPath>
</defs>
</svg>
