<svg width="50" height="50" viewBox="0 0 50 50" fill="none" xmlns="http://www.w3.org/2000/svg">
<rect width="50" height="50" fill="#E60012"/>
<path d="M8.70905 32.5026L10.1015 34.3776H10.655V31.5739H10.0859V33.4156L8.70693 31.5739H8.14073V34.3776H8.70905V32.5026ZM22.3935 31.5739H20.0186V32.1689H20.9146V34.3776H21.5179V32.1689H22.3935V31.5739ZM22.2211 41.1012H23.3984V35.8113H22.2211V41.1012ZM16.0759 32.5026L17.4682 34.3776H18.0217V31.5739H17.4526V33.4156L16.0736 31.5739H15.5074V34.3776H16.0759V32.5026ZM18.7345 39.6492L17.6137 35.8113H16.6749L15.5605 39.6351L14.5431 35.8113H13.3915L14.8883 41.1012H16.1594L17.1457 37.616L18.1256 41.1012H19.4021L20.9069 35.8113H19.7557L18.7345 39.6492ZM10.3364 37.888C9.57212 37.7625 9.07841 37.6209 9.07841 37.2649C9.07841 36.8536 9.62803 36.6954 10.3657 36.6954C11.0513 36.6954 11.7391 36.9568 11.9842 37.06L12.3603 36.1442C12.094 36.0387 11.2489 35.7369 10.3117 35.7369C9.16872 35.7369 7.95428 36.2943 7.95428 37.3272C7.95428 38.1651 8.54501 38.5928 10.0614 38.8537C11.1305 39.0377 11.7193 39.1391 11.7027 39.5986C11.6932 39.8519 11.4976 40.2764 10.2925 40.2764C9.32325 40.2764 8.64009 39.9251 8.40302 39.7824L7.90225 40.6862C8.16913 40.8266 9.06448 41.2464 10.2165 41.2464C11.8994 41.2464 12.7889 40.6634 12.7889 39.5605C12.7889 38.9212 12.5732 38.2552 10.3364 37.888ZM13.3929 31.5739H12.769V34.3776H13.3929V31.5739ZM31.4641 34.3776V31.5739H30.8952V33.4156L29.516 31.5739H28.9498V34.3776H29.5182V32.5026L30.9107 34.3776H31.4641ZM26.6264 33.8584H25.0151V33.2008H26.5051V32.6937H25.0151V32.0886H26.6264V31.5739L24.4461 31.5748V34.3776L26.6264 34.3766V33.8584ZM41.547 40.4648H41.7893V41.1012H41.9424V40.4648H42.179V40.314H41.547V40.4648ZM39.7432 31.4796C38.9198 31.4796 38.2499 32.1507 38.2499 32.9759C38.2499 33.8008 38.9198 34.472 39.7432 34.472C40.5666 34.472 41.2365 33.8008 41.2365 32.9759C41.2365 32.1507 40.5666 31.4796 39.7432 31.4796ZM39.7432 33.8485C39.2627 33.8485 38.872 33.4571 38.872 32.9757C38.872 32.4945 39.2627 32.1031 39.7432 32.1031C40.2235 32.1031 40.6142 32.4945 40.6142 32.9757C40.6142 33.4571 40.2235 33.8485 39.7432 33.8485ZM42.9798 40.314L42.7813 40.8899L42.5833 40.314H42.3649V41.1012H42.5055V40.4969L42.7111 41.0942L42.7136 41.1012H42.8494L42.8517 41.0942L43.0574 40.4969V41.1012H43.1982V40.314H42.9798ZM39.9342 37.8961H37.4636V35.8113H36.3696V41.1012H37.4636V38.9911H39.9342V41.1012H41.0291V35.8113H39.9342V37.8961ZM24.6888 36.9339H26.3793V41.1012H27.5174V36.9339H29.1696V35.8113H24.6888L24.6888 36.9339ZM32.8475 36.8146C33.4447 36.8146 34.0016 37.1335 34.2997 37.6359L35.1603 36.8875C34.6338 36.1038 33.7638 35.6383 32.8166 35.6383C31.2598 35.6383 29.993 36.9049 29.993 38.4617C29.993 40.0184 31.2598 41.285 32.8166 41.285C33.7638 41.285 34.6338 40.8195 35.1603 40.036L34.2997 39.2876C34.0016 39.7901 33.4446 40.1089 32.8475 40.1089C31.9222 40.1089 31.1693 39.37 31.1693 38.4617C31.1693 37.5537 31.9222 36.8146 32.8475 36.8146ZM34.9952 31.5739H33.836V34.3776H34.9952C35.79 34.3776 36.4366 33.7486 36.4366 32.9757C36.4366 32.203 35.79 31.5739 34.9952 31.5739ZM35.0236 33.7885H34.4117V32.1631H35.0236C35.4718 32.1631 35.836 32.5277 35.836 32.9757C35.836 33.4239 35.4718 33.7885 35.0236 33.7885ZM15.4729 8.79947H11.3439C8.66868 8.79947 6.5 10.9682 6.5 13.6432V22.8466C6.5 25.5219 8.66868 27.6904 11.3439 27.6904H15.4729C15.5496 27.6904 15.6115 27.6284 15.6115 27.552V8.93779C15.6115 8.86151 15.5496 8.79947 15.4729 8.79947ZM14.0885 26.1675H11.3439C10.4567 26.1675 9.62271 25.8221 8.99579 25.195C8.36842 24.5682 8.02322 23.7342 8.02322 22.8466V13.6434C8.02322 12.7558 8.36842 11.922 8.99535 11.2953C9.62258 10.6681 10.4567 10.3226 11.3439 10.3226H14.0885V26.1675ZM11.2172 12.6905C12.1982 12.6905 12.9933 13.4858 12.9933 14.4667C12.9933 15.4477 12.1982 16.2429 11.2172 16.2429C10.2363 16.2429 9.44105 15.4477 9.44105 14.4667C9.44105 13.4858 10.2363 12.6905 11.2172 12.6905ZM20.5472 8.79947H17.6245C17.5565 8.79947 17.5016 8.85451 17.5016 8.92264V27.5519C17.5016 27.6284 17.5635 27.6904 17.64 27.6904H20.5472C23.2223 27.6904 25.391 25.5219 25.391 22.8466V13.6432C25.391 10.9681 23.2223 8.79947 20.5472 8.79947ZM21.2389 21.0995C20.184 21.0995 19.3288 20.2443 19.3288 19.1895C19.3288 18.1347 20.184 17.2795 21.2389 17.2795C22.2938 17.2795 23.1488 18.1347 23.1488 19.1895C23.1488 20.2443 22.2938 21.0995 21.2389 21.0995ZM28.5732 27.6904V24.443C28.9088 24.1671 30.1778 23.0758 31.5197 21.9218C32.7262 20.884 33.9318 19.8424 35.1611 18.8318C36.0879 18.07 37.8474 16.6717 37.9034 15.3019C37.9693 13.6905 36.8268 12.646 35.1199 12.646C34.1028 12.646 32.9083 13.2112 32.1859 13.8267C31.4517 14.4522 30.5341 15.2364 30.5341 15.2364C30.5341 15.2364 27.8597 12.3372 27.8597 12.3372C30.1303 9.79237 32.571 8.5022 35.1155 8.5022C40.5377 8.36776 44.6233 14.4105 40.4996 19.1486C39.0026 20.7976 37.3045 22.3425 35.5581 23.7158H42.6386V27.6904L28.5732 27.6904Z" fill="white"/>
</svg>
